<svg xmlns="http://www.w3.org/2000/svg" viewBox="0 0 371 48" width="371" height="48"><title>WhereAnime</title><g color="#c3e64f" transform="translate(0 2) scale(1.375)"><path fill="currentColor" fill-rule="evenodd" d="M7 3.5h18a5 5 0 0 1 5 5v11a5 5 0 0 1-5 5h-5.6l-2.6 3.8a1 1 0 0 1-1.6 0l-2.6-3.8H7a5 5 0 0 1-5-5v-11a5 5 0 0 1 5-5Z M25.2 6.7a1.4 1.4 0 1 1 0 2.8a1.4 1.4 0 1 1 0-2.8Z M12.8 9.4a0.9 0.9 0 0 1 1.35-0.78l7.2 4.6a0.9 0.9 0 0 1 0 1.56l-7.2 4.6a0.9 0.9 0 0 1-1.35-0.78Z"></path></g><g transform="translate(56 36)"><g fill="#f7f2ea"><path transform="translate(0.00 0) scale(0.04000 -0.04000)" d="M804 204L934 571L1138 571L924 0L716 0L571 384L424 0L216 0L2 571L208 571L338 203L474 571L669 571Z"/><path transform="translate(45.60 0) scale(0.04000 -0.04000)" d="M56 770L261 770L261 481Q296 529 345 556Q402 588 470 588Q553 588 610.5 555Q668 522 699 462Q730 402 730 320L730 0L525 0L525 290Q525 354 492.5 388Q460 422 399 422Q357 422 325.5 404Q294 386 277.5 353Q261 320 261 275L261 0L56 0Z"/><path transform="translate(76.76 0) scale(0.04000 -0.04000)" d="M391 -16Q287 -16 205.5 22Q124 60 77 128.5Q30 197 30 288Q30 377 75 444.5Q120 512 198.5 550Q277 588 376 588Q479 588 551.5 543.5Q624 499 663.5 418Q703 337 703 227L252 227Q256 219 261 212Q285 174 332.5 154Q380 134 449 134Q512 134 574.5 150.5Q637 167 688 197L688 67Q629 27 553.5 5.5Q478 -16 391 -16ZM243 350L513 350Q507 367 499 382Q481 412 451.5 428Q422 444 381 444Q336 444 304 426Q272 408 254 377Q247 364 243 350Z"/><path transform="translate(106.12 0) scale(0.04000 -0.04000)" d="M29 571L237 571L262 419Q277 462 300 497Q327 539 368 563.5Q409 588 468 588Q485 588 503 586Q521 584 539 580L539 406Q509 412 482.5 414.5Q456 417 434 417Q390 417 353 399.5Q316 382 293.5 342Q271 302 271 235L271 0L67 0L67 379Z"/><path transform="translate(128.24 0) scale(0.04000 -0.04000)" d="M391 -16Q287 -16 205.5 22Q124 60 77 128.5Q30 197 30 288Q30 377 75 444.5Q120 512 198.5 550Q277 588 376 588Q479 588 551.5 543.5Q624 499 663.5 418Q703 337 703 227L252 227Q256 219 261 212Q285 174 332.5 154Q380 134 449 134Q512 134 574.5 150.5Q637 167 688 197L688 67Q629 27 553.5 5.5Q478 -16 391 -16ZM243 350L513 350Q507 367 499 382Q481 412 451.5 428Q422 444 381 444Q336 444 304 426Q272 408 254 377Q247 364 243 350Z"/></g><g transform="translate(157.60 0)"><g fill="#c3e64f"><path transform="translate(0.00 0) scale(0.04000 -0.04000)" d="M572 0L557 116Q518 56 460 22Q396 -16 315 -16Q231 -16 167.5 21.5Q104 59 68 127.5Q32 196 32 285Q32 376 68 444Q104 512 167.5 550Q231 588 315 588Q396 588 460 551Q518 516 558 457L572 571L784 571L748 286L784 0ZM239 285Q239 243 256.5 210Q274 177 305 158.5Q336 140 376 140Q418 140 455 158.5Q492 177 520 210Q548 243 562 285Q548 328 520 361Q492 394 455 413Q418 432 376 432Q336 432 305 413Q274 394 256.5 361Q239 328 239 285Z"/><path transform="translate(33.04 0) scale(0.04000 -0.04000)" d="M29 571L234 571L253 452Q256 457 259 462Q298 524 355 556Q412 588 481 588Q563 588 621 555Q679 522 709.5 462Q740 402 740 320L740 0L536 0L536 290Q536 354 503.5 388Q471 422 410 422Q368 422 336.5 404Q305 386 288 353Q271 320 271 275L271 0L67 0L67 374Z"/><path transform="translate(64.60 0) scale(0.04000 -0.04000)" d="M56 580L159 560L261 580L261 0L56 0ZM158 627Q105 627 72 653.5Q39 680 39 726Q39 771 72 798Q105 825 158 825Q213 825 245.5 798Q278 771 278 726Q278 680 245.5 653.5Q213 627 158 627Z"/><path transform="translate(77.28 0) scale(0.04000 -0.04000)" d="M29 571L234 571L253 454Q255 458 257 462Q294 524 348.5 556Q403 588 468 588Q547 588 602 555Q657 522 686 462Q690 455 693 447Q696 454 701 462Q737 524 792 556Q847 588 911 588Q990 588 1045.5 555Q1101 522 1130 462Q1159 402 1159 320L1159 0L955 0L955 290Q955 354 926 388Q897 422 842 422Q803 422 774.5 404Q746 386 730.5 353Q715 320 715 275L715 0L511 0L511 290Q511 354 482 388Q453 422 398 422Q359 422 330.5 404Q302 386 286.5 353Q271 320 271 275L271 0L67 0L67 374Z"/><path transform="translate(125.60 0) scale(0.04000 -0.04000)" d="M391 -16Q287 -16 205.5 22Q124 60 77 128.5Q30 197 30 288Q30 377 75 444.5Q120 512 198.5 550Q277 588 376 588Q479 588 551.5 543.5Q624 499 663.5 418Q703 337 703 227L252 227Q256 219 261 212Q285 174 332.5 154Q380 134 449 134Q512 134 574.5 150.5Q637 167 688 197L688 67Q629 27 553.5 5.5Q478 -16 391 -16ZM243 350L513 350Q507 367 499 382Q481 412 451.5 428Q422 444 381 444Q336 444 304 426Q272 408 254 377Q247 364 243 350Z"/></g></g></g></svg>
